<mxfile host="app.diagrams.net" modified="2023-01-27T03:23:44.624Z" agent="5.0 (Macintosh; Intel Mac OS X 10_15_7) AppleWebKit/605.1.15 (KHTML, like Gecko) Version/15.6.1 Safari/605.1.15" etag="cHv1qa1vM0KLvCKPbDdy" version="20.8.13" type="github" pages="2">
  <diagram id="C5RBs43oDa-KdzZeNtuy" name="Page-1">
    <mxGraphModel dx="1306" dy="867" grid="1" gridSize="10" guides="1" tooltips="1" connect="1" arrows="1" fold="1" page="1" pageScale="1" pageWidth="827" pageHeight="1169" math="0" shadow="0">
      <root>
        <mxCell id="WIyWlLk6GJQsqaUBKTNV-0" />
        <mxCell id="WIyWlLk6GJQsqaUBKTNV-1" parent="WIyWlLk6GJQsqaUBKTNV-0" />
        <mxCell id="WIyWlLk6GJQsqaUBKTNV-4" value="No" style="rounded=0;html=1;jettySize=auto;orthogonalLoop=1;fontSize=11;endArrow=block;endFill=0;endSize=8;strokeWidth=1;shadow=0;labelBackgroundColor=none;edgeStyle=orthogonalEdgeStyle;" parent="WIyWlLk6GJQsqaUBKTNV-1" source="WIyWlLk6GJQsqaUBKTNV-6" edge="1">
          <mxGeometry y="20" relative="1" as="geometry">
            <mxPoint as="offset" />
            <mxPoint x="210" y="550" as="targetPoint" />
          </mxGeometry>
        </mxCell>
        <mxCell id="WIyWlLk6GJQsqaUBKTNV-5" value="Yes" style="edgeStyle=orthogonalEdgeStyle;rounded=0;html=1;jettySize=auto;orthogonalLoop=1;fontSize=11;endArrow=block;endFill=0;endSize=8;strokeWidth=1;shadow=0;labelBackgroundColor=none;" parent="WIyWlLk6GJQsqaUBKTNV-1" source="WIyWlLk6GJQsqaUBKTNV-6" target="WIyWlLk6GJQsqaUBKTNV-7" edge="1">
          <mxGeometry y="10" relative="1" as="geometry">
            <mxPoint as="offset" />
          </mxGeometry>
        </mxCell>
        <mxCell id="WIyWlLk6GJQsqaUBKTNV-6" value="Is word length &amp;gt;= 5" style="rhombus;whiteSpace=wrap;html=1;shadow=0;fontFamily=Helvetica;fontSize=12;align=center;strokeWidth=1;spacing=6;spacingTop=-4;fillColor=#f8cecc;strokeColor=#b85450;" parent="WIyWlLk6GJQsqaUBKTNV-1" vertex="1">
          <mxGeometry x="160" y="430" width="100" height="80" as="geometry" />
        </mxCell>
        <mxCell id="iggSaRnqT5LSjW_DM9bq-4" style="edgeStyle=orthogonalEdgeStyle;rounded=0;orthogonalLoop=1;jettySize=auto;html=1;exitX=1;exitY=0.5;exitDx=0;exitDy=0;entryX=0;entryY=0.5;entryDx=0;entryDy=0;" parent="WIyWlLk6GJQsqaUBKTNV-1" source="WIyWlLk6GJQsqaUBKTNV-7" target="iggSaRnqT5LSjW_DM9bq-0" edge="1">
          <mxGeometry relative="1" as="geometry" />
        </mxCell>
        <mxCell id="WIyWlLk6GJQsqaUBKTNV-7" value="Check word" style="rounded=1;whiteSpace=wrap;html=1;fontSize=12;glass=0;strokeWidth=1;shadow=0;fillColor=#f8cecc;strokeColor=#b85450;" parent="WIyWlLk6GJQsqaUBKTNV-1" vertex="1">
          <mxGeometry x="310" y="450" width="120" height="40" as="geometry" />
        </mxCell>
        <mxCell id="PWhF2UCONyF1s1UccybC-20" style="edgeStyle=orthogonalEdgeStyle;rounded=0;orthogonalLoop=1;jettySize=auto;html=1;exitX=0.5;exitY=1;exitDx=0;exitDy=0;entryX=0.5;entryY=0;entryDx=0;entryDy=0;" parent="WIyWlLk6GJQsqaUBKTNV-1" source="WIyWlLk6GJQsqaUBKTNV-12" target="iggSaRnqT5LSjW_DM9bq-16" edge="1">
          <mxGeometry relative="1" as="geometry" />
        </mxCell>
        <mxCell id="WIyWlLk6GJQsqaUBKTNV-12" value="Determine Turn" style="rounded=1;whiteSpace=wrap;html=1;fontSize=12;glass=0;strokeWidth=1;shadow=0;fillColor=#f8cecc;strokeColor=#b85450;" parent="WIyWlLk6GJQsqaUBKTNV-1" vertex="1">
          <mxGeometry x="150" y="550" width="120" height="40" as="geometry" />
        </mxCell>
        <mxCell id="iggSaRnqT5LSjW_DM9bq-5" value="Yes" style="edgeStyle=orthogonalEdgeStyle;rounded=0;orthogonalLoop=1;jettySize=auto;html=1;exitX=1;exitY=0.5;exitDx=0;exitDy=0;entryX=0;entryY=0.5;entryDx=0;entryDy=0;" parent="WIyWlLk6GJQsqaUBKTNV-1" source="iggSaRnqT5LSjW_DM9bq-0" target="iggSaRnqT5LSjW_DM9bq-1" edge="1">
          <mxGeometry relative="1" as="geometry" />
        </mxCell>
        <mxCell id="iggSaRnqT5LSjW_DM9bq-67" value="No" style="edgeStyle=orthogonalEdgeStyle;rounded=0;orthogonalLoop=1;jettySize=auto;html=1;exitX=0.5;exitY=1;exitDx=0;exitDy=0;entryX=1;entryY=0.75;entryDx=0;entryDy=0;" parent="WIyWlLk6GJQsqaUBKTNV-1" source="iggSaRnqT5LSjW_DM9bq-0" target="WIyWlLk6GJQsqaUBKTNV-12" edge="1">
          <mxGeometry relative="1" as="geometry" />
        </mxCell>
        <mxCell id="iggSaRnqT5LSjW_DM9bq-0" value="Is word valid" style="rhombus;whiteSpace=wrap;html=1;shadow=0;fontFamily=Helvetica;fontSize=12;align=center;strokeWidth=1;spacing=6;spacingTop=-4;" parent="WIyWlLk6GJQsqaUBKTNV-1" vertex="1">
          <mxGeometry x="470" y="430" width="100" height="80" as="geometry" />
        </mxCell>
        <mxCell id="iggSaRnqT5LSjW_DM9bq-1" value="!CurrentPlayer wins" style="rounded=1;whiteSpace=wrap;html=1;fontSize=12;glass=0;strokeWidth=1;shadow=0;fillColor=#d5e8d4;strokeColor=#82b366;" parent="WIyWlLk6GJQsqaUBKTNV-1" vertex="1">
          <mxGeometry x="610" y="450" width="120" height="40" as="geometry" />
        </mxCell>
        <mxCell id="iggSaRnqT5LSjW_DM9bq-25" value="Yes" style="edgeStyle=orthogonalEdgeStyle;rounded=0;orthogonalLoop=1;jettySize=auto;html=1;exitX=0.5;exitY=1;exitDx=0;exitDy=0;entryX=0.5;entryY=0;entryDx=0;entryDy=0;" parent="WIyWlLk6GJQsqaUBKTNV-1" source="iggSaRnqT5LSjW_DM9bq-16" target="iggSaRnqT5LSjW_DM9bq-21" edge="1">
          <mxGeometry relative="1" as="geometry" />
        </mxCell>
        <mxCell id="iggSaRnqT5LSjW_DM9bq-28" value="No" style="edgeStyle=orthogonalEdgeStyle;rounded=0;orthogonalLoop=1;jettySize=auto;html=1;exitX=1;exitY=0.5;exitDx=0;exitDy=0;entryX=0;entryY=0.5;entryDx=0;entryDy=0;" parent="WIyWlLk6GJQsqaUBKTNV-1" source="iggSaRnqT5LSjW_DM9bq-16" target="iggSaRnqT5LSjW_DM9bq-22" edge="1">
          <mxGeometry relative="1" as="geometry" />
        </mxCell>
        <mxCell id="iggSaRnqT5LSjW_DM9bq-16" value="Current Player = Player 1?" style="rhombus;whiteSpace=wrap;html=1;shadow=0;fontFamily=Helvetica;fontSize=12;align=center;strokeWidth=1;spacing=6;spacingTop=-4;" parent="WIyWlLk6GJQsqaUBKTNV-1" vertex="1">
          <mxGeometry x="160" y="630" width="100" height="80" as="geometry" />
        </mxCell>
        <mxCell id="iggSaRnqT5LSjW_DM9bq-21" value="Current Player = Player 2" style="rounded=1;whiteSpace=wrap;html=1;fontSize=12;glass=0;strokeWidth=1;shadow=0;" parent="WIyWlLk6GJQsqaUBKTNV-1" vertex="1">
          <mxGeometry x="150" y="740" width="120" height="40" as="geometry" />
        </mxCell>
        <mxCell id="iggSaRnqT5LSjW_DM9bq-22" value="Current Player = Player 1" style="rounded=1;whiteSpace=wrap;html=1;fontSize=12;glass=0;strokeWidth=1;shadow=0;" parent="WIyWlLk6GJQsqaUBKTNV-1" vertex="1">
          <mxGeometry x="290" y="650" width="120" height="40" as="geometry" />
        </mxCell>
        <mxCell id="PWhF2UCONyF1s1UccybC-4" value="Enter letter" style="edgeStyle=orthogonalEdgeStyle;rounded=0;orthogonalLoop=1;jettySize=auto;html=1;exitX=0.5;exitY=1;exitDx=0;exitDy=0;entryX=0.5;entryY=0;entryDx=0;entryDy=0;" parent="WIyWlLk6GJQsqaUBKTNV-1" source="iggSaRnqT5LSjW_DM9bq-58" target="WIyWlLk6GJQsqaUBKTNV-6" edge="1">
          <mxGeometry relative="1" as="geometry" />
        </mxCell>
        <mxCell id="iggSaRnqT5LSjW_DM9bq-58" value="Challenge or Enter Letter" style="rhombus;whiteSpace=wrap;html=1;shadow=0;fontFamily=Helvetica;fontSize=12;align=center;strokeWidth=1;spacing=6;spacingTop=-4;fillColor=#d5e8d4;strokeColor=#82b366;" parent="WIyWlLk6GJQsqaUBKTNV-1" vertex="1">
          <mxGeometry x="160" y="295" width="100" height="80" as="geometry" />
        </mxCell>
        <mxCell id="iggSaRnqT5LSjW_DM9bq-73" value="No" style="edgeStyle=orthogonalEdgeStyle;rounded=0;orthogonalLoop=1;jettySize=auto;html=1;exitX=1;exitY=0.5;exitDx=0;exitDy=0;entryX=0;entryY=0.5;entryDx=0;entryDy=0;" parent="WIyWlLk6GJQsqaUBKTNV-1" source="iggSaRnqT5LSjW_DM9bq-71" target="iggSaRnqT5LSjW_DM9bq-72" edge="1">
          <mxGeometry relative="1" as="geometry" />
        </mxCell>
        <mxCell id="iggSaRnqT5LSjW_DM9bq-77" value="Yes" style="edgeStyle=orthogonalEdgeStyle;rounded=0;orthogonalLoop=1;jettySize=auto;html=1;exitX=0.5;exitY=1;exitDx=0;exitDy=0;entryX=0.5;entryY=0;entryDx=0;entryDy=0;" parent="WIyWlLk6GJQsqaUBKTNV-1" source="iggSaRnqT5LSjW_DM9bq-71" target="iggSaRnqT5LSjW_DM9bq-74" edge="1">
          <mxGeometry relative="1" as="geometry" />
        </mxCell>
        <mxCell id="iggSaRnqT5LSjW_DM9bq-71" value="Is word valid" style="rhombus;whiteSpace=wrap;html=1;shadow=0;fontFamily=Helvetica;fontSize=12;align=center;strokeWidth=1;spacing=6;spacingTop=-4;" parent="WIyWlLk6GJQsqaUBKTNV-1" vertex="1">
          <mxGeometry x="619" y="295" width="100" height="80" as="geometry" />
        </mxCell>
        <mxCell id="iggSaRnqT5LSjW_DM9bq-72" value="!CurrentPlayer wins" style="rounded=1;whiteSpace=wrap;html=1;fontSize=12;glass=0;strokeWidth=1;shadow=0;fillColor=#d5e8d4;strokeColor=#82b366;" parent="WIyWlLk6GJQsqaUBKTNV-1" vertex="1">
          <mxGeometry x="749" y="315" width="120" height="40" as="geometry" />
        </mxCell>
        <mxCell id="iggSaRnqT5LSjW_DM9bq-74" value="CurrentPlayer wins" style="rounded=1;whiteSpace=wrap;html=1;fontSize=12;glass=0;strokeWidth=1;shadow=0;fillColor=#d5e8d4;strokeColor=#82b366;" parent="WIyWlLk6GJQsqaUBKTNV-1" vertex="1">
          <mxGeometry x="609" y="385" width="120" height="40" as="geometry" />
        </mxCell>
        <mxCell id="iggSaRnqT5LSjW_DM9bq-78" value="CurrentPlayer can enter&amp;nbsp; multiple&amp;nbsp;&lt;br&gt;letters, can click submit" style="rounded=1;whiteSpace=wrap;html=1;fontSize=12;glass=0;strokeWidth=1;shadow=0;fillColor=#f8cecc;strokeColor=#b85450;" parent="WIyWlLk6GJQsqaUBKTNV-1" vertex="1">
          <mxGeometry x="330" y="300" width="120" height="70" as="geometry" />
        </mxCell>
        <mxCell id="iggSaRnqT5LSjW_DM9bq-79" value="!CurrentPlayer can do nothing" style="rounded=1;whiteSpace=wrap;html=1;fontSize=12;glass=0;strokeWidth=1;shadow=0;" parent="WIyWlLk6GJQsqaUBKTNV-1" vertex="1">
          <mxGeometry x="330" y="230" width="120" height="70" as="geometry" />
        </mxCell>
        <mxCell id="_d4U-Q4twdhnr5ejPnl3-2" style="edgeStyle=orthogonalEdgeStyle;rounded=0;orthogonalLoop=1;jettySize=auto;html=1;exitX=0.5;exitY=1;exitDx=0;exitDy=0;entryX=0.5;entryY=0;entryDx=0;entryDy=0;" parent="WIyWlLk6GJQsqaUBKTNV-1" source="iggSaRnqT5LSjW_DM9bq-80" edge="1">
          <mxGeometry relative="1" as="geometry">
            <mxPoint x="211" y="297" as="targetPoint" />
          </mxGeometry>
        </mxCell>
        <mxCell id="iggSaRnqT5LSjW_DM9bq-80" value="Current Player can enter letter" style="rounded=1;whiteSpace=wrap;html=1;fontSize=12;glass=0;strokeWidth=1;shadow=0;fillColor=#d5e8d4;strokeColor=#82b366;" parent="WIyWlLk6GJQsqaUBKTNV-1" vertex="1">
          <mxGeometry x="151" y="160" width="120" height="40" as="geometry" />
        </mxCell>
        <mxCell id="_d4U-Q4twdhnr5ejPnl3-0" style="edgeStyle=orthogonalEdgeStyle;rounded=0;orthogonalLoop=1;jettySize=auto;html=1;exitX=0.5;exitY=1;exitDx=0;exitDy=0;" parent="WIyWlLk6GJQsqaUBKTNV-1" source="iggSaRnqT5LSjW_DM9bq-80" target="iggSaRnqT5LSjW_DM9bq-80" edge="1">
          <mxGeometry relative="1" as="geometry" />
        </mxCell>
        <mxCell id="-6dp8KCn7K3Ig1AxOlRO-1" value="Challenge" style="edgeStyle=orthogonalEdgeStyle;rounded=0;orthogonalLoop=1;jettySize=auto;html=1;exitX=1;exitY=0.5;exitDx=0;exitDy=0;entryX=0;entryY=0.5;entryDx=0;entryDy=0;endArrow=none;fillColor=#f8cecc;strokeColor=#b85450;" parent="WIyWlLk6GJQsqaUBKTNV-1" source="iggSaRnqT5LSjW_DM9bq-58" target="iggSaRnqT5LSjW_DM9bq-78" edge="1">
          <mxGeometry relative="1" as="geometry">
            <mxPoint x="260" y="335" as="sourcePoint" />
            <mxPoint x="551" y="335" as="targetPoint" />
          </mxGeometry>
        </mxCell>
        <mxCell id="PWhF2UCONyF1s1UccybC-16" value="No" style="edgeStyle=orthogonalEdgeStyle;rounded=0;orthogonalLoop=1;jettySize=auto;html=1;exitX=0.5;exitY=0;exitDx=0;exitDy=0;entryX=0.5;entryY=1;entryDx=0;entryDy=0;" parent="WIyWlLk6GJQsqaUBKTNV-1" source="PWhF2UCONyF1s1UccybC-17" target="PWhF2UCONyF1s1UccybC-15" edge="1">
          <mxGeometry relative="1" as="geometry" />
        </mxCell>
        <mxCell id="PWhF2UCONyF1s1UccybC-18" style="edgeStyle=orthogonalEdgeStyle;rounded=0;orthogonalLoop=1;jettySize=auto;html=1;exitX=1;exitY=0.5;exitDx=0;exitDy=0;entryX=0;entryY=0.5;entryDx=0;entryDy=0;" parent="WIyWlLk6GJQsqaUBKTNV-1" source="iggSaRnqT5LSjW_DM9bq-78" target="PWhF2UCONyF1s1UccybC-17" edge="1">
          <mxGeometry relative="1" as="geometry">
            <mxPoint x="460" y="335" as="sourcePoint" />
          </mxGeometry>
        </mxCell>
        <mxCell id="PWhF2UCONyF1s1UccybC-0" value="CurrentPlayer can challenge" style="rounded=1;whiteSpace=wrap;html=1;fontSize=12;glass=0;strokeWidth=1;shadow=0;" parent="WIyWlLk6GJQsqaUBKTNV-1" vertex="1">
          <mxGeometry x="273" y="160" width="120" height="40" as="geometry" />
        </mxCell>
        <mxCell id="PWhF2UCONyF1s1UccybC-3" value="Note: Can only challenge when word&amp;gt;=1" style="rounded=1;whiteSpace=wrap;html=1;fontSize=12;glass=0;strokeWidth=1;shadow=0;" parent="WIyWlLk6GJQsqaUBKTNV-1" vertex="1">
          <mxGeometry x="273" y="120" width="120" height="40" as="geometry" />
        </mxCell>
        <mxCell id="PWhF2UCONyF1s1UccybC-14" value="!CurrentPlayer can do nothing" style="rounded=1;whiteSpace=wrap;html=1;fontSize=12;glass=0;strokeWidth=1;shadow=0;" parent="WIyWlLk6GJQsqaUBKTNV-1" vertex="1">
          <mxGeometry x="393" y="160" width="120" height="40" as="geometry" />
        </mxCell>
        <mxCell id="PWhF2UCONyF1s1UccybC-15" value="Tmeout countdown shown" style="rounded=1;whiteSpace=wrap;html=1;fontSize=12;glass=0;strokeWidth=1;shadow=0;" parent="WIyWlLk6GJQsqaUBKTNV-1" vertex="1">
          <mxGeometry x="469" y="210" width="120" height="50" as="geometry" />
        </mxCell>
        <mxCell id="PWhF2UCONyF1s1UccybC-19" value="Yes" style="edgeStyle=orthogonalEdgeStyle;rounded=0;orthogonalLoop=1;jettySize=auto;html=1;exitX=1;exitY=0.5;exitDx=0;exitDy=0;entryX=0;entryY=0.5;entryDx=0;entryDy=0;" parent="WIyWlLk6GJQsqaUBKTNV-1" source="PWhF2UCONyF1s1UccybC-17" edge="1">
          <mxGeometry relative="1" as="geometry">
            <mxPoint x="619" y="335" as="targetPoint" />
          </mxGeometry>
        </mxCell>
        <mxCell id="PWhF2UCONyF1s1UccybC-17" value="CurrentPlayer clicks submit" style="rhombus;whiteSpace=wrap;html=1;shadow=0;fontFamily=Helvetica;fontSize=12;align=center;strokeWidth=1;spacing=6;spacingTop=-4;" parent="WIyWlLk6GJQsqaUBKTNV-1" vertex="1">
          <mxGeometry x="479" y="295" width="100" height="80" as="geometry" />
        </mxCell>
        <mxCell id="_Z7x8CreYpWqfoPFEAFd-0" value="Current Player = !CurrentPlayer&lt;br&gt;!CurrentPayer = CurrentPlayer" style="rounded=1;whiteSpace=wrap;html=1;fontSize=12;glass=0;strokeWidth=1;shadow=0;" parent="WIyWlLk6GJQsqaUBKTNV-1" vertex="1">
          <mxGeometry x="210" y="230" width="120" height="70" as="geometry" />
        </mxCell>
      </root>
    </mxGraphModel>
  </diagram>
  <diagram id="bgVZKkMku67TR88dWrCO" name="Page-2">
    <mxGraphModel dx="1306" dy="867" grid="1" gridSize="10" guides="1" tooltips="1" connect="1" arrows="1" fold="1" page="1" pageScale="1" pageWidth="850" pageHeight="1100" math="0" shadow="0">
      <root>
        <mxCell id="0" />
        <mxCell id="1" parent="0" />
        <mxCell id="0fsIs2r6g_5H5DTYhVrC-1" value="" style="rounded=0;whiteSpace=wrap;html=1;labelBackgroundColor=#CCE5FF;" parent="1" vertex="1">
          <mxGeometry x="160" y="200" width="210" height="370" as="geometry" />
        </mxCell>
        <mxCell id="0fsIs2r6g_5H5DTYhVrC-2" value="Login Screen/Home Screen: Not logged in" style="rounded=0;whiteSpace=wrap;html=1;" parent="1" vertex="1">
          <mxGeometry x="160" y="130" width="210" height="60" as="geometry" />
        </mxCell>
        <mxCell id="0fsIs2r6g_5H5DTYhVrC-5" value="" style="rounded=0;whiteSpace=wrap;html=1;fontSize=35;" parent="1" vertex="1">
          <mxGeometry x="170" y="210" width="190" height="350" as="geometry" />
        </mxCell>
        <mxCell id="0fsIs2r6g_5H5DTYhVrC-3" value="&lt;font style=&quot;font-size: 35px;&quot;&gt;Terminus&lt;/font&gt;" style="text;html=1;strokeColor=none;fillColor=none;align=center;verticalAlign=middle;whiteSpace=wrap;rounded=0;" parent="1" vertex="1">
          <mxGeometry x="161.5" y="241" width="210" height="30" as="geometry" />
        </mxCell>
        <mxCell id="0fsIs2r6g_5H5DTYhVrC-17" value="Login Screen/Home Screen: Logged in" style="rounded=0;whiteSpace=wrap;html=1;" parent="1" vertex="1">
          <mxGeometry x="410" y="130" width="210" height="60" as="geometry" />
        </mxCell>
        <mxCell id="0fsIs2r6g_5H5DTYhVrC-16" value="" style="rounded=0;whiteSpace=wrap;html=1;" parent="1" vertex="1">
          <mxGeometry x="410" y="200" width="210" height="370" as="geometry" />
        </mxCell>
        <mxCell id="0fsIs2r6g_5H5DTYhVrC-26" value="Sign up with Facebook" style="rounded=0;whiteSpace=wrap;html=1;fontSize=10;" parent="1" vertex="1">
          <mxGeometry x="183" y="290" width="167" height="30" as="geometry" />
        </mxCell>
        <mxCell id="0fsIs2r6g_5H5DTYhVrC-27" value="Sign up with Google" style="rounded=0;whiteSpace=wrap;html=1;fontSize=10;" parent="1" vertex="1">
          <mxGeometry x="183" y="330" width="167" height="30" as="geometry" />
        </mxCell>
        <mxCell id="0fsIs2r6g_5H5DTYhVrC-28" value="Sign up with Apple" style="rounded=0;whiteSpace=wrap;html=1;fontSize=10;" parent="1" vertex="1">
          <mxGeometry x="183" y="370" width="167" height="30" as="geometry" />
        </mxCell>
        <mxCell id="0fsIs2r6g_5H5DTYhVrC-30" value="&lt;font style=&quot;font-size: 9px;&quot;&gt;-or-&lt;/font&gt;" style="text;html=1;strokeColor=none;fillColor=none;align=center;verticalAlign=middle;whiteSpace=wrap;rounded=0;fontSize=9;" parent="1" vertex="1">
          <mxGeometry x="152.95" y="410" width="210" height="30" as="geometry" />
        </mxCell>
        <mxCell id="0fsIs2r6g_5H5DTYhVrC-31" value="&amp;nbsp;Continue as Guest" style="rounded=0;whiteSpace=wrap;html=1;fontSize=10;" parent="1" vertex="1">
          <mxGeometry x="183" y="440" width="167" height="30" as="geometry" />
        </mxCell>
        <mxCell id="0fsIs2r6g_5H5DTYhVrC-35" value="" style="rounded=0;whiteSpace=wrap;html=1;fontSize=35;" parent="1" vertex="1">
          <mxGeometry x="420" y="210" width="190" height="350" as="geometry" />
        </mxCell>
        <mxCell id="0fsIs2r6g_5H5DTYhVrC-18" value="&lt;font style=&quot;font-size: 35px;&quot;&gt;Terminus&lt;/font&gt;" style="text;html=1;strokeColor=none;fillColor=none;align=center;verticalAlign=middle;whiteSpace=wrap;rounded=0;" parent="1" vertex="1">
          <mxGeometry x="410" y="241" width="210" height="30" as="geometry" />
        </mxCell>
        <mxCell id="0fsIs2r6g_5H5DTYhVrC-24" value="&lt;p style=&quot;line-height: 90%;&quot;&gt;&lt;font style=&quot;font-size: 16px;&quot;&gt;New Game&lt;/font&gt;&lt;/p&gt;" style="labelPosition=center;verticalLabelPosition=middle;align=center;html=1;shape=mxgraph.basic.shaded_button;dx=10;fillColor=#E6E6E6;strokeColor=none;whiteSpace=wrap;fontSize=35;" parent="1" vertex="1">
          <mxGeometry x="440" y="294" width="150" height="60" as="geometry" />
        </mxCell>
        <mxCell id="0fsIs2r6g_5H5DTYhVrC-36" value="&lt;font style=&quot;font-size: 9px;&quot;&gt;copyright information&lt;/font&gt;" style="text;html=1;strokeColor=none;fillColor=none;align=center;verticalAlign=middle;whiteSpace=wrap;rounded=0;fontSize=9;" parent="1" vertex="1">
          <mxGeometry x="410" y="520" width="210" height="30" as="geometry" />
        </mxCell>
        <mxCell id="0fsIs2r6g_5H5DTYhVrC-37" value="Game" style="rounded=0;whiteSpace=wrap;html=1;labelBackgroundColor=default;" parent="1" vertex="1">
          <mxGeometry x="640" y="130" width="210" height="60" as="geometry" />
        </mxCell>
        <mxCell id="0fsIs2r6g_5H5DTYhVrC-38" value="" style="rounded=0;whiteSpace=wrap;html=1;labelBackgroundColor=#FF33FF;fillColor=#FFE6CC;" parent="1" vertex="1">
          <mxGeometry x="640" y="200" width="210" height="370" as="geometry" />
        </mxCell>
        <mxCell id="0fsIs2r6g_5H5DTYhVrC-39" value="" style="rounded=0;whiteSpace=wrap;html=1;fontSize=35;" parent="1" vertex="1">
          <mxGeometry x="650" y="210" width="190" height="350" as="geometry" />
        </mxCell>
        <mxCell id="0fsIs2r6g_5H5DTYhVrC-40" value="&lt;font style=&quot;font-size: 10px;&quot;&gt;Ads&amp;nbsp;&lt;/font&gt;" style="text;html=1;strokeColor=none;fillColor=none;align=center;verticalAlign=middle;whiteSpace=wrap;rounded=0;fontSize=10;" parent="1" vertex="1">
          <mxGeometry x="640" y="211" width="210" height="30" as="geometry" />
        </mxCell>
        <mxCell id="0fsIs2r6g_5H5DTYhVrC-45" value="&lt;p style=&quot;line-height: 90%;&quot;&gt;&lt;font style=&quot;font-size: 16px;&quot;&gt;Settings&lt;/font&gt;&lt;/p&gt;" style="labelPosition=center;verticalLabelPosition=middle;align=center;html=1;shape=mxgraph.basic.shaded_button;dx=10;fillColor=#E6E6E6;strokeColor=none;whiteSpace=wrap;fontSize=35;" parent="1" vertex="1">
          <mxGeometry x="440" y="370" width="150" height="60" as="geometry" />
        </mxCell>
        <mxCell id="0fsIs2r6g_5H5DTYhVrC-46" value="" style="verticalLabelPosition=bottom;verticalAlign=top;html=1;shadow=0;dashed=0;strokeWidth=1;shape=mxgraph.android.keyboard;sketch=0;labelBackgroundColor=#CCE5FF;fontSize=10;" parent="1" vertex="1">
          <mxGeometry x="650" y="466" width="190" height="95" as="geometry" />
        </mxCell>
        <mxCell id="0fsIs2r6g_5H5DTYhVrC-60" value="" style="rounded=1;whiteSpace=wrap;html=1;labelBackgroundColor=#007FFF;fontSize=10;fillColor=#FFFFFF;" parent="1" vertex="1">
          <mxGeometry x="650" y="241" width="187" height="30" as="geometry" />
        </mxCell>
        <mxCell id="0fsIs2r6g_5H5DTYhVrC-66" value="" style="rounded=1;whiteSpace=wrap;html=1;labelBackgroundColor=#007FFF;fontSize=10;fillColor=#F9FFF2;" parent="1" vertex="1">
          <mxGeometry x="650" y="241" width="100" height="30" as="geometry" />
        </mxCell>
        <mxCell id="0fsIs2r6g_5H5DTYhVrC-47" value="Xain" style="text;html=1;strokeColor=none;fillColor=none;align=center;verticalAlign=middle;whiteSpace=wrap;rounded=0;fontSize=10;fontStyle=1" parent="1" vertex="1">
          <mxGeometry x="650.5" y="241" width="60" height="30" as="geometry" />
        </mxCell>
        <mxCell id="0fsIs2r6g_5H5DTYhVrC-48" value="Guestt123" style="text;html=1;strokeColor=none;fillColor=none;align=center;verticalAlign=middle;whiteSpace=wrap;rounded=0;fontSize=10;" parent="1" vertex="1">
          <mxGeometry x="778" y="242" width="60" height="30" as="geometry" />
        </mxCell>
        <mxCell id="0fsIs2r6g_5H5DTYhVrC-51" value="ab" style="rounded=0;whiteSpace=wrap;html=1;labelBackgroundColor=#CCE5FF;fontSize=10;align=left;" parent="1" vertex="1">
          <mxGeometry x="670" y="325" width="150" height="29" as="geometry" />
        </mxCell>
        <mxCell id="0fsIs2r6g_5H5DTYhVrC-52" value="&lt;p style=&quot;line-height: 90%; font-size: 10px;&quot;&gt;&lt;font style=&quot;font-size: 10px;&quot;&gt;Submit&lt;/font&gt;&lt;/p&gt;" style="labelPosition=center;verticalLabelPosition=middle;align=center;html=1;shape=mxgraph.basic.shaded_button;dx=10;fillColor=#E6E6E6;strokeColor=none;whiteSpace=wrap;fontSize=10;" parent="1" vertex="1">
          <mxGeometry x="657.5" y="541" width="162.5" height="20" as="geometry" />
        </mxCell>
        <mxCell id="0fsIs2r6g_5H5DTYhVrC-53" value="&lt;p style=&quot;line-height: 90%; font-size: 10px;&quot;&gt;&lt;font style=&quot;font-size: 10px;&quot;&gt;Challenge&lt;/font&gt;&lt;/p&gt;" style="labelPosition=center;verticalLabelPosition=middle;align=center;html=1;shape=mxgraph.basic.shaded_button;dx=10;fillColor=#E6E6E6;strokeColor=none;whiteSpace=wrap;fontSize=10;" parent="1" vertex="1">
          <mxGeometry x="670" y="365" width="150" height="20" as="geometry" />
        </mxCell>
        <mxCell id="0fsIs2r6g_5H5DTYhVrC-59" value="" style="rounded=0;whiteSpace=wrap;html=1;labelBackgroundColor=#CCE5FF;fontSize=10;" parent="1" vertex="1">
          <mxGeometry x="640" y="570" width="210" height="30" as="geometry" />
        </mxCell>
        <mxCell id="0fsIs2r6g_5H5DTYhVrC-67" value="" style="rounded=0;whiteSpace=wrap;html=1;fontSize=35;" parent="1" vertex="1">
          <mxGeometry x="650.5" y="610" width="190" height="150" as="geometry" />
        </mxCell>
        <mxCell id="0fsIs2r6g_5H5DTYhVrC-69" value="&lt;font style=&quot;font-size: 9px;&quot;&gt;Xain is the winner!&lt;/font&gt;" style="text;html=1;strokeColor=none;fillColor=none;align=center;verticalAlign=middle;whiteSpace=wrap;rounded=0;fontSize=9;" parent="1" vertex="1">
          <mxGeometry x="680" y="620" width="130" height="30" as="geometry" />
        </mxCell>
        <mxCell id="0fsIs2r6g_5H5DTYhVrC-71" value="apples" style="text;html=1;strokeColor=none;fillColor=none;align=center;verticalAlign=middle;whiteSpace=wrap;rounded=0;fontSize=18;" parent="1" vertex="1">
          <mxGeometry x="678.5" y="660" width="130" height="30" as="geometry" />
        </mxCell>
        <mxCell id="0fsIs2r6g_5H5DTYhVrC-76" value="" style="rounded=0;whiteSpace=wrap;html=1;" parent="1" vertex="1">
          <mxGeometry x="410" y="610" width="210" height="370" as="geometry" />
        </mxCell>
        <mxCell id="0fsIs2r6g_5H5DTYhVrC-77" value="" style="rounded=0;whiteSpace=wrap;html=1;fontSize=35;" parent="1" vertex="1">
          <mxGeometry x="420" y="620" width="190" height="350" as="geometry" />
        </mxCell>
        <mxCell id="0fsIs2r6g_5H5DTYhVrC-78" value="&lt;font style=&quot;font-size: 35px;&quot;&gt;Settings&lt;/font&gt;" style="text;html=1;strokeColor=none;fillColor=none;align=center;verticalAlign=middle;whiteSpace=wrap;rounded=0;" parent="1" vertex="1">
          <mxGeometry x="410" y="651" width="210" height="30" as="geometry" />
        </mxCell>
        <mxCell id="0fsIs2r6g_5H5DTYhVrC-80" value="&lt;font style=&quot;font-size: 9px;&quot;&gt;copyright information&lt;/font&gt;" style="text;html=1;strokeColor=none;fillColor=none;align=center;verticalAlign=middle;whiteSpace=wrap;rounded=0;fontSize=9;" parent="1" vertex="1">
          <mxGeometry x="410" y="930" width="210" height="30" as="geometry" />
        </mxCell>
        <mxCell id="0fsIs2r6g_5H5DTYhVrC-82" value="" style="shape=image;html=1;verticalAlign=top;verticalLabelPosition=bottom;labelBackgroundColor=#ffffff;imageAspect=0;aspect=fixed;image=https://cdn1.iconfinder.com/data/icons/ionicons-sharp-vol-2/512/toggle-sharp-128.png;fontSize=18;fillColor=#F9FFF2;" parent="1" vertex="1">
          <mxGeometry x="540" y="720" width="48" height="48" as="geometry" />
        </mxCell>
        <mxCell id="0fsIs2r6g_5H5DTYhVrC-83" value="&lt;font style=&quot;font-size: 9px;&quot;&gt;Sound&lt;/font&gt;" style="text;html=1;strokeColor=none;fillColor=none;align=center;verticalAlign=middle;whiteSpace=wrap;rounded=0;fontSize=9;" parent="1" vertex="1">
          <mxGeometry x="465" y="729.5" width="100" height="29" as="geometry" />
        </mxCell>
        <mxCell id="0fsIs2r6g_5H5DTYhVrC-87" value="&lt;p style=&quot;line-height: 90%;&quot;&gt;&lt;font style=&quot;font-size: 12px;&quot;&gt;How to Play&lt;/font&gt;&lt;/p&gt;" style="labelPosition=center;verticalLabelPosition=middle;align=center;html=1;shape=mxgraph.basic.shaded_button;dx=10;fillColor=#E6E6E6;strokeColor=none;whiteSpace=wrap;fontSize=35;" parent="1" vertex="1">
          <mxGeometry x="460" y="771" width="128" height="48" as="geometry" />
        </mxCell>
        <mxCell id="0fsIs2r6g_5H5DTYhVrC-88" value="" style="shape=image;html=1;verticalAlign=top;verticalLabelPosition=bottom;labelBackgroundColor=#ffffff;imageAspect=0;aspect=fixed;image=https://cdn1.iconfinder.com/data/icons/ui-essential-17/32/UI_Essential_Outline_1_essential-app-ui-sound-speaker-128.png;fontSize=12;fillColor=#F9FFF2;" parent="1" vertex="1">
          <mxGeometry x="460" y="730" width="28" height="28" as="geometry" />
        </mxCell>
        <mxCell id="0fsIs2r6g_5H5DTYhVrC-92" value="" style="rounded=0;whiteSpace=wrap;html=1;" parent="1" vertex="1">
          <mxGeometry x="170" y="610" width="210" height="370" as="geometry" />
        </mxCell>
        <mxCell id="0fsIs2r6g_5H5DTYhVrC-93" value="" style="rounded=0;whiteSpace=wrap;html=1;fontSize=35;" parent="1" vertex="1">
          <mxGeometry x="180" y="620" width="190" height="350" as="geometry" />
        </mxCell>
        <mxCell id="0fsIs2r6g_5H5DTYhVrC-94" value="&lt;font style=&quot;font-size: 35px;&quot;&gt;How to Play&lt;/font&gt;" style="text;html=1;strokeColor=none;fillColor=none;align=center;verticalAlign=middle;whiteSpace=wrap;rounded=0;" parent="1" vertex="1">
          <mxGeometry x="170" y="651" width="210" height="30" as="geometry" />
        </mxCell>
        <mxCell id="0fsIs2r6g_5H5DTYhVrC-95" value="&lt;font style=&quot;font-size: 9px;&quot;&gt;copyright information&lt;/font&gt;" style="text;html=1;strokeColor=none;fillColor=none;align=center;verticalAlign=middle;whiteSpace=wrap;rounded=0;fontSize=9;" parent="1" vertex="1">
          <mxGeometry x="170" y="930" width="210" height="30" as="geometry" />
        </mxCell>
        <mxCell id="0fsIs2r6g_5H5DTYhVrC-101" value="&lt;font style=&quot;font-size: 10px;&quot;&gt;Rules on how to play ajfioewajvoieawjnenvawnev;anwe;vneanvwn&lt;br&gt;&lt;br&gt;&lt;br&gt;jvowieajowvejo&lt;br&gt;&lt;/font&gt;" style="text;html=1;strokeColor=none;fillColor=none;align=left;verticalAlign=middle;whiteSpace=wrap;rounded=0;fontSize=10;" parent="1" vertex="1">
          <mxGeometry x="180" y="690" width="180" height="60" as="geometry" />
        </mxCell>
        <mxCell id="0fsIs2r6g_5H5DTYhVrC-102" value="" style="endArrow=classic;html=1;rounded=0;fontSize=10;exitX=1.007;exitY=0.583;exitDx=0;exitDy=0;exitPerimeter=0;entryX=-0.006;entryY=0.585;entryDx=0;entryDy=0;entryPerimeter=0;" parent="1" target="0fsIs2r6g_5H5DTYhVrC-16" edge="1">
          <mxGeometry width="50" height="50" relative="1" as="geometry">
            <mxPoint x="371.47" y="416.71000000000004" as="sourcePoint" />
            <mxPoint x="410" y="418.19000000000005" as="targetPoint" />
          </mxGeometry>
        </mxCell>
        <mxCell id="0fsIs2r6g_5H5DTYhVrC-103" value="&lt;font style=&quot;font-size: 9px;&quot;&gt;back button closes the app&lt;/font&gt;" style="text;html=1;strokeColor=none;fillColor=none;align=center;verticalAlign=middle;whiteSpace=wrap;rounded=0;fontSize=9;" parent="1" vertex="1">
          <mxGeometry x="160" y="570" width="210" height="30" as="geometry" />
        </mxCell>
        <mxCell id="0fsIs2r6g_5H5DTYhVrC-104" value="&lt;font style=&quot;font-size: 9px;&quot;&gt;back button closes the app&lt;/font&gt;" style="text;html=1;strokeColor=none;fillColor=none;align=center;verticalAlign=middle;whiteSpace=wrap;rounded=0;fontSize=9;" parent="1" vertex="1">
          <mxGeometry x="410" y="567" width="210" height="30" as="geometry" />
        </mxCell>
        <mxCell id="0fsIs2r6g_5H5DTYhVrC-105" value="&lt;font style=&quot;font-size: 9px;&quot;&gt;back button goes &amp;nbsp;to are. you sure you want to quit pop up&lt;/font&gt;" style="text;html=1;strokeColor=none;fillColor=none;align=center;verticalAlign=middle;whiteSpace=wrap;rounded=0;fontSize=9;" parent="1" vertex="1">
          <mxGeometry x="640.5" y="567" width="210" height="30" as="geometry" />
        </mxCell>
        <mxCell id="0fsIs2r6g_5H5DTYhVrC-106" value="&lt;p style=&quot;line-height: 40%;&quot;&gt;&lt;font style=&quot;font-size: 15px;&quot;&gt;Are you sure you want to quit?&lt;/font&gt;&lt;/p&gt;" style="rounded=0;whiteSpace=wrap;html=1;fontSize=35;" parent="1" vertex="1">
          <mxGeometry x="870" y="300" width="190" height="140" as="geometry" />
        </mxCell>
        <mxCell id="0fsIs2r6g_5H5DTYhVrC-107" value="&lt;p style=&quot;line-height: 90%;&quot;&gt;&lt;font style=&quot;font-size: 16px;&quot;&gt;Yes&lt;/font&gt;&lt;/p&gt;" style="labelPosition=center;verticalLabelPosition=middle;align=center;html=1;shape=mxgraph.basic.shaded_button;dx=10;fillColor=#E6E6E6;strokeColor=none;whiteSpace=wrap;fontSize=35;" parent="1" vertex="1">
          <mxGeometry x="880" y="400" width="70" height="40" as="geometry" />
        </mxCell>
        <mxCell id="0fsIs2r6g_5H5DTYhVrC-108" value="&lt;p style=&quot;line-height: 90%;&quot;&gt;&lt;font style=&quot;font-size: 16px;&quot;&gt;No&lt;/font&gt;&lt;/p&gt;" style="labelPosition=center;verticalLabelPosition=middle;align=center;html=1;shape=mxgraph.basic.shaded_button;dx=10;fillColor=#E6E6E6;strokeColor=none;whiteSpace=wrap;fontSize=35;" parent="1" vertex="1">
          <mxGeometry x="970" y="400" width="70" height="40" as="geometry" />
        </mxCell>
        <mxCell id="0fsIs2r6g_5H5DTYhVrC-109" value="&lt;font style=&quot;font-size: 9px;&quot;&gt;yes goes to terminus new game&amp;nbsp;&lt;br&gt;no goes to game screen&lt;br&gt;back button goes to game screen&lt;/font&gt;" style="text;html=1;strokeColor=none;fillColor=none;align=center;verticalAlign=middle;whiteSpace=wrap;rounded=0;fontSize=9;" parent="1" vertex="1">
          <mxGeometry x="860" y="450" width="210" height="30" as="geometry" />
        </mxCell>
        <mxCell id="0fsIs2r6g_5H5DTYhVrC-110" value="&lt;p style=&quot;line-height: 100%;&quot;&gt;&lt;span style=&quot;font-size: 8px;&quot;&gt;Another?&lt;/span&gt;&lt;/p&gt;" style="labelPosition=center;verticalLabelPosition=middle;align=center;html=1;shape=mxgraph.basic.shaded_button;dx=10;fillColor=#E6E6E6;strokeColor=none;whiteSpace=wrap;fontSize=35;" parent="1" vertex="1">
          <mxGeometry x="750" y="700" width="70" height="40" as="geometry" />
        </mxCell>
        <mxCell id="0fsIs2r6g_5H5DTYhVrC-111" value="&lt;p style=&quot;line-height: 100%;&quot;&gt;&lt;br&gt;&lt;/p&gt;" style="labelPosition=center;verticalLabelPosition=middle;align=center;html=1;shape=mxgraph.basic.shaded_button;dx=10;fillColor=#E6E6E6;strokeColor=none;whiteSpace=wrap;fontSize=35;" parent="1" vertex="1">
          <mxGeometry x="657.5" y="701.5" width="70" height="40" as="geometry" />
        </mxCell>
        <mxCell id="0fsIs2r6g_5H5DTYhVrC-112" value="" style="sketch=0;aspect=fixed;html=1;points=[];align=center;image;fontSize=12;image=img/lib/mscae/Azure_Home.svg;labelBackgroundColor=#FFFFFF;fillColor=#F9FFF2;" parent="1" vertex="1">
          <mxGeometry x="680" y="713.5" width="20" height="16" as="geometry" />
        </mxCell>
        <mxCell id="0fsIs2r6g_5H5DTYhVrC-113" value="&lt;font style=&quot;font-size: 9px;&quot;&gt;back button goes &amp;nbsp;to Home Screen&lt;/font&gt;" style="text;html=1;strokeColor=none;fillColor=none;align=center;verticalAlign=middle;whiteSpace=wrap;rounded=0;fontSize=9;" parent="1" vertex="1">
          <mxGeometry x="650.5" y="758" width="189.5" height="30" as="geometry" />
        </mxCell>
        <mxCell id="0fsIs2r6g_5H5DTYhVrC-114" value="&lt;font style=&quot;font-size: 9px;&quot;&gt;back button goes to the screen that called it (default)&lt;/font&gt;" style="text;html=1;strokeColor=none;fillColor=none;align=center;verticalAlign=middle;whiteSpace=wrap;rounded=0;fontSize=9;" parent="1" vertex="1">
          <mxGeometry x="410" y="980" width="210" height="30" as="geometry" />
        </mxCell>
        <mxCell id="0fsIs2r6g_5H5DTYhVrC-115" value="&lt;font style=&quot;font-size: 9px;&quot;&gt;back button goes to settings (default)&lt;/font&gt;" style="text;html=1;strokeColor=none;fillColor=none;align=center;verticalAlign=middle;whiteSpace=wrap;rounded=0;fontSize=9;" parent="1" vertex="1">
          <mxGeometry x="180" y="980" width="210" height="30" as="geometry" />
        </mxCell>
        <mxCell id="EGt9XRMhVJABWnfaB-nl-2" value="&lt;font style=&quot;font-size: 9px;&quot;&gt;this is a popup&lt;/font&gt;" style="text;html=1;strokeColor=none;fillColor=none;align=center;verticalAlign=middle;whiteSpace=wrap;rounded=0;fontSize=9;" vertex="1" parent="1">
          <mxGeometry x="161.5" y="819" width="210" height="30" as="geometry" />
        </mxCell>
      </root>
    </mxGraphModel>
  </diagram>
</mxfile>
